# xmcd CD database file
#
# Track frame offsets:
#	150
#	18074
#	37010
#	56393
#	69947
#	88821
#	114121
#	133321
#	152435
#	167604
#	195221
#	214205
#	234555
#	252420
#
# Disc length: 3806 seconds
#
# Revision: 3
# Processed by: cddbd v1.5.2PL0 Copyright (c) Steve Scherf et al.
# Submitted via: CDex 1.51
#
DISCID=af0edc0e
DTITLE=Wu-Tang Clan - 8 Diagrams
DYEAR=2007
DGENRE=Hip-Hop
TTITLE0=Campfire
TTITLE1=Take It Back
TTITLE2=Get Them Out Ya Way Pa
TTITLE3=Rushing Elephants
TTITLE4=Unpredictable ft. Dexter Wiggles
TTITLE5=The Heart Gently Weeps ft. Erykah Badu, Dhani Harrison and John Frusciante
TTITLE6=Wolves ft. George Clinton
TTITLE7=Gun Will Go ft. Sunny Valentine
TTITLE8=Sunlight
TTITLE9=Stick Me for My Riches ft. Gerald Alston
TTITLE10=Starter ft. Sunny Valentine and Tash Mahogany
TTITLE11=Windmill
TTITLE12=Weak Spot
TTITLE13=Life Changes
EXTD=YEAR: 2007
EXTT0=
EXTT1=
EXTT2=
EXTT3=
EXTT4=
EXTT5=
EXTT6=
EXTT7=
EXTT8=
EXTT9=
EXTT10=
EXTT11=
EXTT12=
EXTT13=
PLAYORDER=
